custom-analysis
version=1
nRows=7
nColumns=98
inDegrees=no

This file contains tibia displacement and acting force.

Units are S.I. units (seconds, meters, Newtons, ...)
Angles are in degrees.

endheader
time	APT	SIT	knee_angle	aACL_R_force	pACL_R_force	aPCL_R_force	pPCL_R_force	aMCL_R_force	mMCL_R_force	pMCL_R_force	aLCL_R_force	mLCL_R_force	pLCL_R_force	aPCL_L_force	pPCL_L_force	aMCL_L_force	aLCL_L_force	aACL_R_length	pACL_R_length	aPCL_R_length	pPCL_R_length	aMCL_R_length	mMCL_R_length	pMCL_R_length	aLCL_R_length	mLCL_R_length	pLCL_R_length	aPCL_L_length	pPCL_L_length	aMCL_L_length	aLCL_L_length	aACL_R_strain	pACL_R_strain	aPCL_R_strain	pPCL_R_strain	aMCL_R_strain	mMCL_R_strain	pMCL_R_strain	aLCL_R_strain	mLCL_R_strain	pLCL_R_strain	aPCL_L_strain	pPCL_L_strain	aMCL_L_strain	aLCL_L_strain	femur_lat_meniscii_r.femur_lat_r.force.X	femur_lat_meniscii_r.femur_lat_r.force.Y	femur_lat_meniscii_r.femur_lat_r.force.Z	femur_lat_meniscii_r.femur_lat_r.torque.X	femur_lat_meniscii_r.femur_lat_r.torque.Y	femur_lat_meniscii_r.femur_lat_r.torque.Z	femur_lat_meniscii_r.meniscus_lat_r.force.X	femur_lat_meniscii_r.meniscus_lat_r.force.Y	femur_lat_meniscii_r.meniscus_lat_r.force.Z	femur_lat_meniscii_r.meniscus_lat_r.torque.X	femur_lat_meniscii_r.meniscus_lat_r.torque.Y	femur_lat_meniscii_r.meniscus_lat_r.torque.Z	femur_med_meniscii_r.femur_med_r.force.X	femur_med_meniscii_r.femur_med_r.force.Y	femur_med_meniscii_r.femur_med_r.force.Z	femur_med_meniscii_r.femur_med_r.torque.X	femur_med_meniscii_r.femur_med_r.torque.Y	femur_med_meniscii_r.femur_med_r.torque.Z	femur_med_meniscii_r.meniscus_med_r.force.X	femur_med_meniscii_r.meniscus_med_r.force.Y	femur_med_meniscii_r.meniscus_med_r.force.Z	femur_med_meniscii_r.meniscus_med_r.torque.X	femur_med_meniscii_r.meniscus_med_r.torque.Y	femur_med_meniscii_r.meniscus_med_r.torque.Z	femur_med_tibia_r.tibia_upper_r.force.X	femur_med_tibia_r.tibia_upper_r.force.Y	femur_med_tibia_r.tibia_upper_r.force.Z	femur_med_tibia_r.tibia_upper_r.torque.X	femur_med_tibia_r.tibia_upper_r.torque.Y	femur_med_tibia_r.tibia_upper_r.torque.Z	femur_med_tibia_r.femur_med_r.force.X	femur_med_tibia_r.femur_med_r.force.Y	femur_med_tibia_r.femur_med_r.force.Z	femur_med_tibia_r.femur_med_r.torque.X	femur_med_tibia_r.femur_med_r.torque.Y	femur_med_tibia_r.femur_med_r.torque.Z	femur_lat_tibia_r.tibia_upper_r.force.X	femur_lat_tibia_r.tibia_upper_r.force.Y	femur_lat_tibia_r.tibia_upper_r.force.Z	femur_lat_tibia_r.tibia_upper_r.torque.X	femur_lat_tibia_r.tibia_upper_r.torque.Y	femur_lat_tibia_r.tibia_upper_r.torque.Z	femur_lat_tibia_r.femur_lat_r.force.X	femur_lat_tibia_r.femur_lat_r.force.Y	femur_lat_tibia_r.femur_lat_r.force.Z	femur_lat_tibia_r.femur_lat_r.torque.X	femur_lat_tibia_r.femur_lat_r.torque.Y	femur_lat_tibia_r.femur_lat_r.torque.Z	femur_lat_meniscii_force_r	femur_med_meniscii_force_r	femur_lat_tibia_force_r	femur_med_tibia_force_r
      0.22615377	      0.00559210	      0.00091916	     89.99998384	     42.06051434	     17.78097425	    821.96899509	    407.66250695	     14.38595981	      2.07009367	      0.00000000	      0.00000000	      0.00000000	      0.00000000	      0.00000000	      0.00000000	      0.00000001	      0.00000000	      0.03331408	      0.02626328	      0.03644838	      0.03284968	      0.06269815	      0.06049926	      0.05695236	      0.04880780	      0.04313196	      0.03789344	      0.01525851	      0.01651186	      0.06550154	      0.04489616	      0.07445723	      0.04807027	      0.17215068	      0.09909986	      0.04449917	      0.01180334	     -0.03023505	     -0.12807718	     -0.23414356	     -0.27605112	      0.00000079	     -0.32847694	      0.00000060	     -0.00000086	    202.83876903	     -1.41078002	     34.86593602	    -14.05242329	      4.97584023	     82.43557866	   -202.83876903	      1.41078002	    -34.86593602	      0.04605908	     -6.80290036	     -1.02499806	     64.69047146	    -45.90599006	    -13.26024010	      4.52589433	     -1.17847659	     26.08255432	    -64.69047146	     45.90599006	     13.26024010	      0.60956422	      1.28865363	     -1.41049361	   -629.73663568	     39.46145272	    101.19768024	      0.18457793	     11.13250905	     -3.15095727	    629.73663568	    -39.46145272	   -101.19768024	     40.28905897	    -10.85248412	    254.90259510	    -42.81444633	     -6.99523288	    -12.30620052	      0.25901111	     -1.58384213	     -0.00017228	     42.81444633	      6.99523288	     12.30620052	     -5.17177560	      1.05760483	     17.39127880	    205.81834227	     80.42419405	     45.09382074	    639.03552879
      0.23021730	      0.00559615	      0.00091921	     89.99998384	     40.95009521	     16.36566788	    819.01747901	    400.81022806	      9.83671614	     -2.67190467	      0.00000000	      0.00000000	      0.00000000	      0.00000000	      0.00000000	      0.00000000	      0.00000001	      0.00000000	      0.03331743	      0.02626579	      0.03644598	      0.03284737	      0.06270103	      0.06050172	      0.05695431	      0.04880300	      0.04312692	      0.03788792	      0.01525851	      0.01651186	      0.06550154	      0.04489616	      0.07456519	      0.04817031	      0.17207359	      0.09902255	      0.04454716	      0.01184450	     -0.03020169	     -0.12816284	     -0.23423301	     -0.27615664	      0.00000079	     -0.32847694	      0.00000060	     -0.00000086	    207.68119596	     -2.31017344	     32.97181004	    -13.26277053	      5.06003663	     84.41639280	   -207.68119596	      2.31017344	    -32.97181004	      0.01312424	     -6.85499472	     -1.08594416	     66.20610719	    -45.98891918	    -13.91444337	      4.78470030	     -1.20793143	     26.68534885	    -66.20610719	     45.98891918	     13.91444337	      0.61278646	      1.32989262	     -1.40674344	   -632.20281334	     40.15773560	    102.70970574	      0.18824058	     11.21348409	     -3.18383643	    632.20281334	    -40.15773560	   -102.70970574	     40.88980670	    -10.90600731	    255.90882769	    -44.26436805	     -7.09306943	    -12.47313289	      0.26263354	     -1.62733606	     -0.00592274	     44.26436805	      7.09306943	     12.47313289	     -5.24202294	      1.09000029	     17.98223126	    210.29492699	     81.80367382	     46.53197779	    641.74942507
      0.23241382	      0.00559884	      0.00092238	     89.99998384	     42.40490356	     18.06881643	    821.16955156	    407.77176720	     15.47047889	      3.17077664	      0.00000000	      0.00000000	      0.00000000	      0.00000000	      0.00000000	      0.00000000	      0.00000001	      0.00000000	      0.03331747	      0.02626502	      0.03644143	      0.03284296	      0.06269987	      0.06050025	      0.05695253	      0.04879682	      0.04312058	      0.03788127	      0.01525851	      0.01651186	      0.06550154	      0.04489616	      0.07456629	      0.04813973	      0.17192729	      0.09887527	      0.04452782	      0.01181977	     -0.03023203	     -0.12827325	     -0.23434561	     -0.27628352	      0.00000079	     -0.32847694	      0.00000060	     -0.00000086	    200.91526670	     -1.06081517	     35.43416457	    -14.29203466	      4.93009314	     81.64169111	   -200.91526670	      1.06081517	    -35.43416457	      0.05865922	     -6.76828048	     -0.99205592	     64.65149649	    -46.14512946	    -13.22193828	      4.50654142	     -1.17806100	     26.06934741	    -64.65149649	     46.14512946	     13.22193828	      0.61200917	      1.28645645	     -1.41940377	   -638.60288887	     39.67185827	    103.19865641	      0.18076255	     11.29236812	     -3.18434668	    638.60288887	    -39.67185827	   -103.19865641	     41.09572707	    -11.00054946	    258.49492377	    -46.58233661	     -7.58359066	    -13.41192760	      0.28134362	     -1.72449960	     -0.00130744	     46.58233661	      7.58359066	     13.41192760	     -5.63568654	      1.15061366	     18.92251903	    204.01874850	     80.52334210	     49.06429183	    648.10297692
      0.23461034	      0.00560076	      0.00091868	     89.99998384	     42.18073289	     17.74490037	    820.73838146	    405.95273113	     14.00220523	      1.60379586	      0.00000000	      0.00000000	      0.00000000	      0.00000000	      0.00000000	      0.00000000	      0.00000001	      0.00000000	      0.03332107	      0.02626836	      0.03644382	      0.03284543	      0.06270552	      0.06050580	      0.05695788	      0.04879734	      0.04312100	      0.03788150	      0.01525851	      0.01651186	      0.06550154	      0.04489616	      0.07468246	      0.04827311	      0.17200424	      0.09895778	      0.04462185	      0.01191268	     -0.03014099	     -0.12826409	     -0.23433813	     -0.27627923	      0.00000079	     -0.32847694	      0.00000060	     -0.00000086	    202.29988828	     -1.31723043	     34.47355700	    -13.89615419	      4.94906667	     82.20796698	   -202.29988828	      1.31723043	    -34.47355700	      0.04738217	     -6.76636476	     -1.00917362	     64.80709580	    -46.03523912	    -13.55922766	      4.64318201	     -1.18262242	     26.13021947	    -64.80709580	     46.03523912	     13.55922766	      0.61110935	      1.29965117	     -1.41436358	   -622.41985820	     39.38822135	    100.36306704	      0.18670741	     11.00397004	     -3.12494881	    622.41985820	    -39.38822135	   -100.36306704	     39.95234816	    -10.72867874	    251.94657989	    -45.43590443	     -7.36207988	    -12.97648796	      0.27284085	     -1.67794865	     -0.00263150	     45.43590443	      7.36207988	     12.97648796	     -5.45324236	      1.12104599	     18.45725425	    205.22038404	     80.64152505	     47.82270247	    631.68873434
      0.23680686	      0.00560335	      0.00092009	     89.99998384	     42.05693157	     17.55048751	    819.93831719	    404.83899885	     13.57726082	      1.15772353	      0.00000000	      0.00000000	      0.00000000	      0.00000000	      0.00000000	      0.00000000	      0.00000001	      0.00000000	      0.03332236	      0.02626902	      0.03644082	      0.03284258	      0.06270634	      0.06050635	      0.05695811	      0.04879223	      0.04311574	      0.03787593	      0.01525851	      0.01651186	      0.06550154	      0.04489616	      0.07472430	      0.04829928	      0.17190762	      0.09886251	      0.04463556	      0.01192190	     -0.03013705	     -0.12835525	     -0.23443168	     -0.27638563	      0.00000079	     -0.32847694	      0.00000060	     -0.00000086	    203.08028278	     -1.44418646	     34.53077698	    -13.91630882	      4.96776672	     82.52803190	   -203.08028278	      1.44418646	    -34.53077698	      0.04392293	     -6.79129061	     -1.01887440	     65.10847474	    -46.12553004	    -13.59819423	      4.65738974	     -1.18783848	     26.25078601	    -65.10847474	     46.12553004	     13.59819423	      0.61191583	      1.30432397	     -1.41634931	   -626.88897785	     39.37781331	    101.09054923	      0.18288983	     11.07401174	     -3.13703422	    626.88897785	    -39.37781331	   -101.09054923	     40.24838030	    -10.80047152	    253.75537968	    -47.27563102	     -7.75180315	    -13.51242483	      0.28626622	     -1.74645892	      0.00110712	     47.27563102	      7.75180315	     13.51242483	     -5.68025616	      1.16638166	     19.20350836	    206.00014924	     80.94188588	     49.77611240	    636.20727902
      0.23960543	      0.00560667	      0.00092036	     89.99998384	     42.46198343	     17.95954400	    819.95010238	    405.59307467	     14.53000097	      2.10416284	      0.00000000	      0.00000000	      0.00000000	      0.00000000	      0.00000000	      0.00000000	      0.00000001	      0.00000000	      0.03332469	      0.02627055	      0.03643851	      0.03284049	      0.06270916	      0.06050888	      0.05696026	      0.04878699	      0.04311030	      0.03787014	      0.01525851	      0.01651186	      0.06550154	      0.04489616	      0.07479932	      0.04836031	      0.17183333	      0.09879248	      0.04468251	      0.01196410	     -0.03010054	     -0.12844883	     -0.23452813	     -0.27649626	      0.00000079	     -0.32847694	      0.00000060	     -0.00000086	    202.69924040	     -1.07292483	     34.68714843	    -13.98539114	      4.96184194	     82.37082828	   -202.69924040	      1.07292483	    -34.68714843	      0.05161346	     -6.78981405	     -1.00337656	     64.81135543	    -46.13249024	    -13.60483912	      4.66023482	     -1.18314524	     26.13302930	    -64.81135543	     46.13249024	     13.60483912	      0.61140310	      1.30055323	     -1.41787661	   -623.99912489	     39.24414421	    100.99212349	      0.18142276	     11.03123994	     -3.12311575	    623.99912489	    -39.24414421	   -100.99212349	     40.21094973	    -10.75332228	    252.58710933	    -48.83968274	     -7.99756952	    -13.97447651	      0.29558998	     -1.80507208	      0.00077264	     48.83968274	      7.99756952	     13.97447651	     -5.87409530	      1.20499359	     19.83908320	    205.64856307	     80.70817862	     51.42530235	    633.33594539
      0.24314211	      0.00561114	      0.00091967	     89.99998384	     42.11406846	     17.45151320	    818.79795841	    403.40211303	     13.23118112	      0.73667957	      0.00000000	      0.00000000	      0.00000000	      0.00000000	      0.00000000	      0.00000000	      0.00000001	      0.00000000	      0.03332915	      0.02627414	      0.03643617	      0.03283838	      0.06271389	      0.06051320	      0.05696399	      0.04878067	      0.04310369	      0.03786299	      0.01525851	      0.01651186	      0.06550154	      0.04489616	      0.07494329	      0.04850370	      0.17175813	      0.09872192	      0.04476139	      0.01203636	     -0.03003697	     -0.12856176	     -0.23464558	     -0.27663286	      0.00000079	     -0.32847694	      0.00000060	     -0.00000086	    204.49502804	     -1.24668359	     34.88816831	    -14.06359553	      5.00432112	     83.10478489	   -204.49502804	      1.24668359	    -34.88816831	      0.04817888	     -6.84793555	     -1.02009096	     65.22587744	    -46.15480813	    -13.66089039	      4.68293246	     -1.18962365	     26.29798362	    -65.22587744	     46.15480813	     13.66089039	      0.61062916	      1.30610013	     -1.41664407	   -619.26442857	     38.99113508	    100.19862913	      0.18007279	     10.93659506	     -3.09941452	    619.26442857	    -38.99113508	   -100.19862913	     39.89474475	    -10.66915964	    250.67247605	    -50.25042421	     -8.18298476	    -14.61307210	      0.30450920	     -1.86752436	     -0.00098350	     50.25042421	      8.18298476	     14.61307210	     -6.13866015	      1.24283230	     20.41287251	    207.45350082	     81.06356351	     52.96799269	    628.52884292
